# Exported from Wings 3D 1.5.2
mtllib ray.mtl
o Cube1
#8 vertices, 8 faces
v 0.0000000e+0 -3.00000000 -2.00000000
v 0.0000000e+0 -3.00000000 2.00000000
v 0.0000000e+0 29.00000000 -2.00000000
v 0.0000000e+0 29.00000000 2.00000000
v 2.00000000 -3.00000000 -1.2246468e-16
v -2.00000000 -3.00000000 1.2246468e-16
v 2.00000000 29.00000000 -1.2246468e-16
v -2.00000000 29.00000000 1.2246468e-16
vt 0.0000000e+0 5.5511151e-17
vt 0.0000000e+0 1.00000000
vt 0.0000000e+0 1.00000000
vt 5.5511151e-17 0.0000000e+0
vt 5.5511151e-17 1.00000000
vt 1.1102230e-16 0.0000000e+0
vt 1.00000000 1.00000000
vt 1.00000000 2.2204460e-16
vt 1.00000000 0.0000000e+0
vt 1.00000000 1.1102230e-16
vt 1.00000000 1.00000000
vn -1.00000000 0.0000000e+0 0.0000000e+0
vn 1.00000000 0.0000000e+0 0.0000000e+0
vn -1.00000000 0.0000000e+0 0.0000000e+0
vn 1.00000000 0.0000000e+0 0.0000000e+0
vn -1.00000000 0.0000000e+0 0.0000000e+0
vn 1.00000000 0.0000000e+0 0.0000000e+0
vn -1.00000000 0.0000000e+0 0.0000000e+0
vn 1.00000000 0.0000000e+0 0.0000000e+0
vn -1.00000000 0.0000000e+0 0.0000000e+0
vn 1.00000000 0.0000000e+0 0.0000000e+0
vn -1.00000000 0.0000000e+0 0.0000000e+0
vn 1.00000000 0.0000000e+0 0.0000000e+0
vn -6.1232340e-17 0.0000000e+0 -1.00000000
vn 6.1232340e-17 0.0000000e+0 1.00000000
vn -6.1232340e-17 0.0000000e+0 -1.00000000
vn 6.1232340e-17 0.0000000e+0 1.00000000
vn -6.1232340e-17 0.0000000e+0 -1.00000000
vn 6.1232340e-17 0.0000000e+0 1.00000000
vn -6.1232340e-17 0.0000000e+0 -1.00000000
vn 6.1232340e-17 0.0000000e+0 1.00000000
vn -6.1232340e-17 0.0000000e+0 -1.00000000
vn 6.1232340e-17 0.0000000e+0 1.00000000
vn -6.1232340e-17 0.0000000e+0 -1.00000000
vn 6.1232340e-17 0.0000000e+0 1.00000000
g Cube1
usemtl Cube1_auv
s 1
f 1/10/4 4/3/12 2/4/6
f 3/11/8 4/3/10 1/10/2
f 5/9/16 8/5/24 6/1/18
f 7/11/20 8/5/22 5/9/14
s 2
f 1/6/1 4/7/9 3/2/7
f 2/8/5 4/7/11 1/6/3
f 5/6/13 8/7/21 7/2/19
f 6/8/17 8/7/23 5/6/15
