# Exported from Wings 3D 1.5.2
mtllib ring.mtl
o Tube3
#24 vertices, 48 faces
v 1.43423100 -0.83286941 2.5092063e-16
v 1.01415447 -0.83286941 -1.01415447
v 1.3484687e-16 -0.83286941 -1.43423100
v -1.01415447 -0.83286941 -1.01415447
v -1.43423100 -0.83286941 7.5277993e-17
v -1.01415447 -0.83286941 1.01415447
v -2.1643841e-16 -0.83286941 1.43423100
v 1.01415447 -0.83286941 1.01415447
v 2.35912922 1.64342818 -2.8950320e-16
v 1.80387914 0.52660333 -0.74719121
v 1.66815627 1.64342818 -1.66815627
v 0.74719121 0.52660333 -1.80387914
v 8.7861417e-17 1.64342818 -2.35912922
v -0.74719121 0.52660333 -1.80387914
v -1.66815627 1.64342818 -1.66815627
v -1.80387914 0.52660333 -0.74719121
v -2.35912922 1.64342818 -7.1467171e-16
v -1.80387914 0.52660333 0.74719121
v -1.66815627 1.64342818 1.66815627
v -0.74719121 0.52660333 1.80387914
v -3.8364379e-16 1.64342818 2.35912922
v 0.74719121 0.52660333 1.80387914
v 1.66815627 1.64342818 1.66815627
v 1.80387914 0.52660333 0.74719121
vt 2.1340754e-2 0.55650324
vt 2.2432719e-2 0.53958455
vt 0.12449718 0.21082053
vt 0.13854223 0.19803461
vt 0.16835251 0.90701124
vt 0.18100263 0.91817027
vt 0.18998128 0.41429937
vt 0.19631213 0.40383656
vt 0.20386009 0.65542430
vt 0.20700445 0.66542399
vt 0.33813419 0.21796423
vt 0.35175831 0.21322371
vt 0.36912219 0.51818418
vt 0.37141112 0.51439815
vt 0.39977069 0.41853970
vt 0.40579275 0.41597936
vt 0.40765359 0.82161939
vt 0.41691593 0.82382150
vt 0.42021706 0.59816723
vt 0.42105013 0.60005461
vt 0.42861200 1.6779409e-2
vt 0.44975309 1.5591252e-2
vt 0.48718249 0.36172835
vt 0.49528329 0.36250230
vt 0.51209168 0.62912418
vt 0.51402605 0.62752747
vt 0.55762188 0.97603523
vt 0.57259655 0.97247641
vt 0.58015841 0.38920121
vt 0.58429262 0.16543433
vt 0.58715791 0.39345925
vt 0.59972138 0.17000709
vt 0.60143786 0.57071612
vt 0.60158222 0.57564712
vt 0.63208636 0.47107164
vt 0.63596386 0.47722834
vt 0.65561666 0.77840277
vt 0.66307436 0.77129159
vt 0.79420410 0.32383183
vt 0.80351488 0.33620218
vt 0.81106284 0.58778992
vt 0.81122727 0.57495645
vt 0.82020592 7.1085552e-2
vt 0.83902247 8.4615243e-2
vt 0.86883275 0.79359188
vt 0.87671137 0.77843529
vt 0.97986780 0.43275259
vt 0.98494225 0.45204193
vn 0.92305348 -0.34476087 -0.17062300
vn 0.92305348 -0.34476087 0.17062300
vn 0.83884530 -0.41905768 -0.34746110
vn -0.83884530 0.41905768 -0.34746110
vn -0.92305348 0.34476087 0.17062300
vn -0.83884530 0.41905768 0.34746110
vn 0.83884530 -0.41905768 0.34746110
vn -0.92305348 0.34476087 -0.17062300
vn 0.77334606 -0.34476087 -0.53204870
vn 0.53204870 -0.34476087 -0.77334606
vn 0.83884530 -0.41905768 -0.34746110
vn -0.83884530 0.41905768 0.34746110
vn -0.53204870 0.34476087 0.77334606
vn -0.34746110 0.41905768 0.83884530
vn 0.34746110 -0.41905768 -0.83884530
vn -0.77334606 0.34476087 0.53204870
vn 0.17062300 -0.34476087 -0.92305348
vn -0.17062300 -0.34476087 -0.92305348
vn 0.17062300 0.34476087 0.92305348
vn -0.34746110 0.41905768 0.83884530
vn 0.34746110 0.41905768 0.83884530
vn 0.34746110 -0.41905768 -0.83884530
vn -0.34746110 -0.41905768 -0.83884530
vn -0.17062300 0.34476087 0.92305348
vn -0.53204870 -0.34476087 -0.77334606
vn -0.77334606 -0.34476087 -0.53204870
vn 0.34746110 0.41905768 0.83884530
vn 0.53204870 0.34476087 0.77334606
vn 0.83884530 0.41905768 0.34746110
vn -0.34746110 -0.41905768 -0.83884530
vn -0.83884530 -0.41905768 -0.34746110
vn 0.77334606 0.34476087 0.53204870
vn -0.92305348 -0.34476087 -0.17062300
vn -0.92305348 -0.34476087 0.17062300
vn 0.83884530 0.41905768 0.34746110
vn -0.83884530 -0.41905768 -0.34746110
vn -0.83884530 -0.41905768 0.34746110
vn 0.92305348 0.34476087 -0.17062300
vn 0.83884530 0.41905768 -0.34746110
vn 0.92305348 0.34476087 0.17062300
vn -0.77334606 -0.34476087 0.53204870
vn -0.53204870 -0.34476087 0.77334606
vn -0.83884530 -0.41905768 0.34746110
vn -0.34746110 -0.41905768 0.83884530
vn 0.53204870 0.34476087 -0.77334606
vn 0.83884530 0.41905768 -0.34746110
vn 0.34746110 0.41905768 -0.83884530
vn 0.77334606 0.34476087 -0.53204870
vn -0.17062300 -0.34476087 0.92305348
vn 0.17062300 -0.34476087 0.92305348
vn -0.34746110 -0.41905768 0.83884530
vn 0.34746110 -0.41905768 0.83884530
vn -0.34746110 0.41905768 -0.83884530
vn -0.17062300 0.34476087 -0.92305348
vn 0.34746110 0.41905768 -0.83884530
vn 0.17062300 0.34476087 -0.92305348
vn 0.53204870 -0.34476087 0.77334606
vn 0.77334606 -0.34476087 0.53204870
vn -0.83884530 0.41905768 -0.34746110
vn 0.34746110 -0.41905768 0.83884530
vn 0.83884530 -0.41905768 0.34746110
vn -0.77334606 0.34476087 -0.53204870
vn -0.34746110 0.41905768 -0.83884530
vn -0.53204870 0.34476087 -0.77334606
vn 0.92305348 -0.34476087 -0.17062300
vn 0.92305348 -0.34476087 0.17062300
vn -0.92305348 0.34476087 0.17062300
vn -0.92305348 0.34476087 -0.17062300
vn 0.92305348 -0.34476087 -0.17062300
vn 0.77334606 -0.34476087 -0.53204870
vn 0.83884530 -0.41905768 -0.34746110
vn -0.92305348 0.34476087 0.17062300
vn -0.83884530 0.41905768 0.34746110
vn -0.77334606 0.34476087 0.53204870
vn 0.77334606 -0.34476087 -0.53204870
vn 0.53204870 -0.34476087 -0.77334606
vn -0.53204870 0.34476087 0.77334606
vn -0.77334606 0.34476087 0.53204870
vn 0.53204870 -0.34476087 -0.77334606
vn 0.17062300 -0.34476087 -0.92305348
vn -0.53204870 0.34476087 0.77334606
vn -0.34746110 0.41905768 0.83884530
vn 0.34746110 -0.41905768 -0.83884530
vn -0.17062300 0.34476087 0.92305348
vn 0.17062300 -0.34476087 -0.92305348
vn -0.17062300 -0.34476087 -0.92305348
vn 0.17062300 0.34476087 0.92305348
vn -0.17062300 0.34476087 0.92305348
vn -0.17062300 -0.34476087 -0.92305348
vn -0.53204870 -0.34476087 -0.77334606
vn 0.17062300 0.34476087 0.92305348
vn 0.34746110 0.41905768 0.83884530
vn 0.53204870 0.34476087 0.77334606
vn -0.34746110 -0.41905768 -0.83884530
vn -0.53204870 -0.34476087 -0.77334606
vn -0.77334606 -0.34476087 -0.53204870
vn 0.53204870 0.34476087 0.77334606
vn 0.77334606 0.34476087 0.53204870
vn -0.77334606 -0.34476087 -0.53204870
vn -0.92305348 -0.34476087 -0.17062300
vn 0.83884530 0.41905768 0.34746110
vn -0.83884530 -0.41905768 -0.34746110
vn 0.77334606 0.34476087 0.53204870
vn 0.92305348 0.34476087 0.17062300
vn -0.92305348 -0.34476087 -0.17062300
vn -0.92305348 -0.34476087 0.17062300
vn 0.92305348 0.34476087 -0.17062300
vn 0.92305348 0.34476087 0.17062300
vn -0.92305348 -0.34476087 0.17062300
vn -0.77334606 -0.34476087 0.53204870
vn -0.83884530 -0.41905768 0.34746110
vn 0.92305348 0.34476087 -0.17062300
vn 0.83884530 0.41905768 -0.34746110
vn 0.77334606 0.34476087 -0.53204870
vn -0.77334606 -0.34476087 0.53204870
vn -0.53204870 -0.34476087 0.77334606
vn 0.53204870 0.34476087 -0.77334606
vn 0.77334606 0.34476087 -0.53204870
vn -0.53204870 -0.34476087 0.77334606
vn -0.17062300 -0.34476087 0.92305348
vn -0.34746110 -0.41905768 0.83884530
vn 0.53204870 0.34476087 -0.77334606
vn 0.34746110 0.41905768 -0.83884530
vn 0.17062300 0.34476087 -0.92305348
vn -0.17062300 -0.34476087 0.92305348
vn 0.17062300 -0.34476087 0.92305348
vn -0.17062300 0.34476087 -0.92305348
vn 0.17062300 0.34476087 -0.92305348
vn 0.17062300 -0.34476087 0.92305348
vn 0.53204870 -0.34476087 0.77334606
vn 0.34746110 -0.41905768 0.83884530
vn -0.34746110 0.41905768 -0.83884530
vn -0.17062300 0.34476087 -0.92305348
vn -0.53204870 0.34476087 -0.77334606
vn 0.53204870 -0.34476087 0.77334606
vn 0.77334606 -0.34476087 0.53204870
vn -0.77334606 0.34476087 -0.53204870
vn -0.53204870 0.34476087 -0.77334606
vn 0.77334606 -0.34476087 0.53204870
vn 0.92305348 -0.34476087 0.17062300
vn -0.83884530 0.41905768 -0.34746110
vn 0.83884530 -0.41905768 0.34746110
vn -0.77334606 0.34476087 -0.53204870
vn -0.92305348 0.34476087 -0.17062300
g Tube3
usemtl Tube3_auv
s 1
f 1/33/1 10/42/69 9/46/65
f 1/33/7 24/38/142 8/26/61
f 2/35/11 10/42/71 1/33/3
f 2/35/10 12/39/79 11/47/76
f 3/29/22 12/39/83 2/35/15
f 3/29/18 14/30/89 13/43/86
f 4/23/30 14/30/94 3/29/23
f 4/23/26 16/11/99 15/21/96
f 5/15/36 16/11/102 4/23/31
f 5/15/34 18/7/109 17/3/106
f 6/13/43 18/7/111 5/15/37
f 6/13/42 20/10/119 19/1/116
f 7/20/51 20/10/121 6/13/44
f 7/20/50 22/18/129 21/6/126
f 8/26/60 22/18/131 7/20/52
f 8/26/58 24/38/139 23/28/136
f 9/46/66 24/38/140 1/33/2
f 11/47/75 10/42/70 2/35/9
f 13/43/85 12/39/80 3/29/17
f 15/21/95 14/30/90 4/23/25
f 17/3/105 16/11/100 5/15/33
f 19/1/115 18/7/110 6/13/41
f 21/6/125 20/10/120 7/20/49
f 23/28/135 22/18/130 8/26/57
s 2
f 1/31/6 10/40/73 2/36/12
f 2/36/14 12/41/82 3/34/20
f 3/34/21 14/37/92 4/25/27
f 4/25/29 16/17/101 5/19/35
f 5/19/39 18/9/113 6/14/46
f 6/14/47 20/8/123 7/16/55
f 7/16/53 22/12/132 8/24/63
f 8/24/59 24/32/141 1/31/4
f 9/44/68 1/31/8 24/32/144
f 10/40/72 1/31/5 9/44/67
f 11/48/78 2/36/16 10/40/74
f 12/41/81 2/36/13 11/48/77
f 13/45/88 3/34/24 12/41/84
f 14/37/91 3/34/19 13/45/87
f 15/27/97 4/25/28 14/37/93
f 16/17/103 4/25/32 15/27/98
f 17/5/108 5/19/40 16/17/104
f 18/9/112 5/19/38 17/5/107
f 19/2/118 6/14/48 18/9/114
f 20/8/122 6/14/45 19/2/117
f 21/4/128 7/16/56 20/8/124
f 22/12/133 7/16/54 21/4/127
f 23/22/138 8/24/64 22/12/134
f 24/32/143 8/24/62 23/22/137
